<?xml version="1.0" encoding="UTF-8" standalone="no"?>
<svg
   width="4in"
   height="4in"
   viewBox="0 0 400 400"
   version="1.1"
   id="svg23"
   sodipodi:docname="front_vinyl_cut_editable.svg"
   xmlns:inkscape="http://www.inkscape.org/namespaces/inkscape"
   xmlns:sodipodi="http://sodipodi.sourceforge.net/DTD/sodipodi-0.dtd"
   xmlns="http://www.w3.org/2000/svg"
   xmlns:svg="http://www.w3.org/2000/svg">
  <defs
     id="defs23" />
  <sodipodi:namedview
     id="namedview23"
     pagecolor="#ffffff"
     bordercolor="#000000"
     borderopacity="0.25"
     inkscape:showpageshadow="2"
     inkscape:pageopacity="0.0"
     inkscape:pagecheckerboard="0"
     inkscape:deskcolor="#d1d1d1"
     inkscape:document-units="in" />
  <title
     id="title1">I Network With AI badge front vinyl cut art</title>
  <desc
     id="desc1">Cut white text and copper/gold network traces/node rings. Size is 4 inches square for a 4 inch acrylic circle.</desc>
  <g
     id="VINYL_COPPER_TRACES_AND_NODE_RINGS">
    <line
       x1="200.00"
       y1="45.00"
       x2="309.60"
       y2="90.40"
       stroke="#B87333"
       stroke-width="6"
       stroke-linecap="round"
       opacity="0.95"
       id="line1" />
    <line
       x1="309.60"
       y1="90.40"
       x2="355.00"
       y2="200.00"
       stroke="#B87333"
       stroke-width="6"
       stroke-linecap="round"
       opacity="0.95"
       id="line2" />
    <line
       x1="355.00"
       y1="200.00"
       x2="309.60"
       y2="309.60"
       stroke="#B87333"
       stroke-width="6"
       stroke-linecap="round"
       opacity="0.95"
       id="line3" />
    <line
       x1="309.60"
       y1="309.60"
       x2="200.00"
       y2="355.00"
       stroke="#B87333"
       stroke-width="6"
       stroke-linecap="round"
       opacity="0.95"
       id="line4" />
    <line
       x1="200.00"
       y1="355.00"
       x2="90.40"
       y2="309.60"
       stroke="#B87333"
       stroke-width="6"
       stroke-linecap="round"
       opacity="0.95"
       id="line5" />
    <line
       x1="90.40"
       y1="309.60"
       x2="45.00"
       y2="200.00"
       stroke="#B87333"
       stroke-width="6"
       stroke-linecap="round"
       opacity="0.95"
       id="line6" />
    <line
       x1="45.00"
       y1="200.00"
       x2="90.40"
       y2="90.40"
       stroke="#B87333"
       stroke-width="6"
       stroke-linecap="round"
       opacity="0.95"
       id="line7" />
    <line
       x1="90.40"
       y1="90.40"
       x2="200.00"
       y2="45.00"
       stroke="#B87333"
       stroke-width="6"
       stroke-linecap="round"
       opacity="0.95"
       id="line8" />
    <line
       x1="227.90"
       y1="72.90"
       x2="327.10"
       y2="172.10"
       stroke="#B87333"
       stroke-width="4"
       stroke-linecap="round"
       opacity="0.55"
       id="line9" />
    <line
       x1="327.10"
       y1="227.90"
       x2="227.90"
       y2="327.10"
       stroke="#B87333"
       stroke-width="4"
       stroke-linecap="round"
       opacity="0.55"
       id="line10" />
    <line
       x1="172.10"
       y1="327.10"
       x2="72.90"
       y2="227.90"
       stroke="#B87333"
       stroke-width="4"
       stroke-linecap="round"
       opacity="0.55"
       id="line11" />
    <line
       x1="72.90"
       y1="172.10"
       x2="172.10"
       y2="72.90"
       stroke="#B87333"
       stroke-width="4"
       stroke-linecap="round"
       opacity="0.55"
       id="line12" />
    <line
       x1="129.86"
       y1="129.86"
       x2="270.14"
       y2="270.14"
       stroke="#B87333"
       stroke-width="4"
       stroke-linecap="round"
       opacity="0.55"
       id="line13" />
    <line
       x1="270.14"
       y1="129.86"
       x2="129.86"
       y2="270.14"
       stroke="#B87333"
       stroke-width="4"
       stroke-linecap="round"
       opacity="0.55"
       id="line14" />
    <path
       d="M 183.000,45.000 a 17.000,17.000 0 1,0 34.000,0 a 17.000,17.000 0 1,0 -34.000,0 Z M 192.000,45.000 a 8.000,8.000 0 1,1 16.000,0 a 8.000,8.000 0 1,1 -16.000,0 Z"
       fill="#B87333"
       fill-rule="evenodd"
       id="path14" />
    <path
       d="M 292.602,90.398 a 17.000,17.000 0 1,0 34.000,0 a 17.000,17.000 0 1,0 -34.000,0 Z M 301.602,90.398 a 8.000,8.000 0 1,1 16.000,0 a 8.000,8.000 0 1,1 -16.000,0 Z"
       fill="#B87333"
       fill-rule="evenodd"
       id="path15" />
    <path
       d="M 338.000,200.000 a 17.000,17.000 0 1,0 34.000,0 a 17.000,17.000 0 1,0 -34.000,0 Z M 347.000,200.000 a 8.000,8.000 0 1,1 16.000,0 a 8.000,8.000 0 1,1 -16.000,0 Z"
       fill="#B87333"
       fill-rule="evenodd"
       id="path16" />
    <path
       d="M 292.602,309.602 a 17.000,17.000 0 1,0 34.000,0 a 17.000,17.000 0 1,0 -34.000,0 Z M 301.602,309.602 a 8.000,8.000 0 1,1 16.000,0 a 8.000,8.000 0 1,1 -16.000,0 Z"
       fill="#B87333"
       fill-rule="evenodd"
       id="path17" />
    <path
       d="M 183.000,355.000 a 17.000,17.000 0 1,0 34.000,0 a 17.000,17.000 0 1,0 -34.000,0 Z M 192.000,355.000 a 8.000,8.000 0 1,1 16.000,0 a 8.000,8.000 0 1,1 -16.000,0 Z"
       fill="#B87333"
       fill-rule="evenodd"
       id="path18" />
    <path
       d="M 73.398,309.602 a 17.000,17.000 0 1,0 34.000,0 a 17.000,17.000 0 1,0 -34.000,0 Z M 82.398,309.602 a 8.000,8.000 0 1,1 16.000,0 a 8.000,8.000 0 1,1 -16.000,0 Z"
       fill="#B87333"
       fill-rule="evenodd"
       id="path19" />
    <path
       d="M 28.000,200.000 a 17.000,17.000 0 1,0 34.000,0 a 17.000,17.000 0 1,0 -34.000,0 Z M 37.000,200.000 a 8.000,8.000 0 1,1 16.000,0 a 8.000,8.000 0 1,1 -16.000,0 Z"
       fill="#B87333"
       fill-rule="evenodd"
       id="path20" />
    <path
       d="M 73.398,90.398 a 17.000,17.000 0 1,0 34.000,0 a 17.000,17.000 0 1,0 -34.000,0 Z M 82.398,90.398 a 8.000,8.000 0 1,1 16.000,0 a 8.000,8.000 0 1,1 -16.000,0 Z"
       fill="#B87333"
       fill-rule="evenodd"
       id="path21" />
  </g>
  <g
     id="VINYL_WHITE_TEXT"
     fill="#FFFFFF"
     font-family="DejaVu Sans Condensed, Arial, sans-serif"
     font-weight="700"
     text-anchor="middle">
    <path
       d="M 79.356445,151.65283 H 86.64209 V 183 h -7.285645 z m 27.840825,0 h 8.12548 l 10.26709,21.5 v -21.5 h 6.88672 V 183 h -8.12549 L 114.10498,161.5 V 183 h -6.90771 z m 32.37597,0 h 19.63135 v 6.10987 h -12.3457 v 5.83691 h 11.61084 v 6.10986 h -11.61084 v 7.18067 h 12.76562 V 183 h -20.05127 z m 23.07471,0 h 25.99316 v 6.10987 h -9.34326 V 183 h -7.28564 v -25.2373 h -9.36426 z m 27.35791,0 h 6.9707 l 4.8711,22.78076 4.85009,-22.78076 h 7.0127 l 4.8291,22.78076 4.87109,-22.78076 h 6.92872 L 223.68359,183 h -8.39843 L 210.16211,159.16943 205.10205,183 h -8.39844 z m 57.97021,5.29102 q -3.31738,0 -5.16503,2.72949 -1.82667,2.72949 -1.82667,7.68457 0,4.93408 1.82667,7.66357 1.84765,2.7295 5.16503,2.7295 3.33838,0 5.16504,-2.7295 1.84766,-2.72949 1.84766,-7.66357 0,-4.95508 -1.84766,-7.68457 -1.82666,-2.72949 -5.16504,-2.72949 z m 0,-5.85791 q 6.80274,0 10.64502,4.32519 3.86328,4.3252 3.86328,11.94678 0,7.60059 -3.86328,11.92578 -3.84228,4.3252 -10.64502,4.3252 -6.78173,0 -10.64502,-4.3252 -3.86328,-4.32519 -3.86328,-11.92578 0,-7.62158 3.86328,-11.94678 3.86329,-4.32519 10.64502,-4.32519 z m 30.33936,14.46631 q 2.26758,0 3.25439,-0.94483 1.00782,-0.94482 1.00782,-3.10742 0,-2.1416 -1.00782,-3.06543 -0.98681,-0.92383 -3.25439,-0.92383 H 275.25 v 8.04151 z M 275.25,171.13721 V 183 h -7.28564 v -31.34717 h 11.10693 q 5.58496,0 8.16748,2.07862 2.60352,2.07861 2.60352,6.57177 0,3.10742 -1.34375,5.10205 -1.34375,1.99463 -4.07325,2.93946 1.49073,0.37793 2.66651,1.72168 1.19677,1.32275 2.39355,4.03125 L 293.43262,183 h -7.74756 l -3.42236,-7.78955 q -1.04981,-2.35156 -2.12061,-3.2124 -1.0708,-0.86084 -2.83447,-0.86084 z m 22.50781,-19.48438 h 7.28565 v 11.44287 l 10.47705,-11.44287 h 8.46142 L 310.37646,166.49707 325.36768,183 h -9.11231 L 305.04346,170.6543 V 183 h -7.28565 z"
       id="text21"
       style="font-size:43px"
       aria-label="I NETWORK" />
    <path
       d="m 124.30615,198.29785 h 6.16016 l 4.30469,20.13184 4.28613,-20.13184 h 6.19726 l 4.26758,20.13184 4.30469,-20.13184 h 6.12305 L 154.06787,226 H 146.646 L 142.11865,204.94043 137.64697,226 h -7.42187 z m 39.83692,0 h 6.43847 V 226 h -6.43847 z m 9.74121,0 h 22.9707 v 5.39942 h -8.25684 V 226 h -6.43847 v -22.30273 h -8.27539 z m 26.29199,0 h 6.43848 v 10.55762 h 9.48144 v -10.55762 h 6.41992 V 226 h -6.41992 v -11.74512 h -9.48144 V 226 h -6.43848 z m 55.64551,22.65527 H 245.76514 L 244.16943,226 h -6.45703 l 9.24024,-27.70215 h 7.66308 L 263.85596,226 h -6.47559 z m -8.46094,-5.13964 h 6.82812 l -3.3955,-11.02149 z m 19.7793,-17.51563 h 6.43847 V 226 h -6.43847 z"
       id="text22"
       style="font-size:38px"
       aria-label="WITH AI" />
    <path
       d="m 123.10913,264.40479 q 0.68066,0 1.0293,-0.33204 0.35693,-0.33203 0.35693,-0.97949 0,-0.63916 -0.35693,-0.97119 -0.34864,-0.34033 -1.0293,-0.34033 h -1.58545 v 2.62305 z m 0.0996,5.42041 q 0.87158,0 1.30322,-0.40674 0.43994,-0.40674 0.43994,-1.22852 0,-0.80517 -0.43994,-1.20361 -0.43164,-0.40674 -1.30322,-0.40674 h -1.68506 v 3.24561 z m 2.67285,-4.45752 q 0.92969,0.29882 1.43604,1.104 0.50634,0.80518 0.50634,1.97559 0,1.79296 -1.0957,2.67285 Q 125.64087,272 123.41626,272 h -4.77295 v -12.39307 h 4.31641 q 2.32422,0 3.36181,0.78028 1.0459,0.78027 1.0459,2.49853 0,0.90479 -0.38183,1.54395 -0.37354,0.63086 -1.10401,0.93799 z m 5.91602,-5.76075 h 2.88037 v 7.4292 q 0,1.53565 0.44824,2.19971 0.45654,0.65576 1.47754,0.65576 1.0293,0 1.47754,-0.65576 0.45654,-0.66406 0.45654,-2.19971 v -7.4292 h 2.88037 v 7.4292 q 0,2.63135 -1.19531,3.91797 -1.18701,1.28662 -3.61914,1.28662 -2.43213,0 -3.61914,-1.28662 -1.18701,-1.28662 -1.18701,-3.91797 z m 13.91797,0 h 2.88037 V 272 h -2.88037 z m 7.18603,0 h 2.88037 v 9.97754 h 5.04688 V 272 h -7.92725 z m 14.12549,2.41553 v 7.56201 h 1.0293 q 1.75976,0 2.68945,-0.97119 0.92969,-0.97119 0.92969,-2.82226 0,-1.84278 -0.92969,-2.80567 -0.92139,-0.96289 -2.68945,-0.96289 z m -2.88037,-2.41553 h 3.03808 q 2.54004,0 3.77686,0.40674 1.24512,0.39844 2.1333,1.36133 0.78857,0.83838 1.17041,1.93408 0.38184,1.09571 0.38184,2.48194 0,1.40283 -0.38184,2.50683 -0.38184,1.0957 -1.17041,1.93408 -0.89648,0.96289 -2.1499,1.36963 Q 169.69165,272 167.18481,272 h -3.03808 z m 19.69287,0 h 10.27637 v 2.41553 h -3.69385 V 272 h -2.88037 v -9.97754 h -3.70215 z m 13.26221,0 h 2.88037 v 4.72315 h 4.2417 v -4.72315 h 2.87207 V 272 h -2.87207 v -5.25439 h -4.2417 V 272 h -2.88037 z m 14.2998,0 h 7.76123 v 2.41553 h -4.88086 v 2.30762 h 4.59033 v 2.41553 h -4.59033 v 2.83886 h 5.04688 V 272 h -7.92725 z m 18.77149,0 h 3.66064 l 2.54004,6.63233 2.55664,-6.63233 h 3.65234 V 272 h -2.72265 v -9.06445 l -2.56494,6.68213 h -1.82618 l -2.56494,-6.68213 V 272 h -2.73095 z m 16.72363,0 h 7.76123 v 2.41553 h -4.88086 v 2.30762 h 4.59033 v 2.41553 h -4.59033 v 2.83886 h 5.04687 V 272 h -7.92724 z m 19.71191,0.39014 v 2.62305 q -0.91308,-0.45655 -1.79297,-0.68897 -0.87158,-0.23242 -1.65185,-0.23242 -1.0293,0 -1.52735,0.31543 -0.48974,0.31543 -0.48974,0.97949 0,0.49805 0.33203,0.78028 0.33203,0.27392 1.21191,0.47314 l 1.22022,0.27393 q 1.86767,0.41504 2.64795,1.26171 0.78027,0.84668 0.78027,2.40723 0,2.05029 -1.0957,3.05469 -1.0874,0.99609 -3.33692,0.99609 -1.0625,0 -2.1333,-0.22412 -1.0625,-0.22412 -2.1333,-0.66406 v -2.69775 q 1.0708,0.63085 2.0669,0.95458 0.99609,0.31543 1.92578,0.31543 0.93799,0 1.43603,-0.34863 0.50635,-0.34863 0.50635,-0.99609 0,-0.58106 -0.34033,-0.89649 -0.34033,-0.31543 -1.36133,-0.56445 l -1.1123,-0.27393 q -1.66846,-0.39843 -2.44873,-1.27001 -0.77198,-0.87159 -0.77198,-2.34913 0,-1.85107 1.0791,-2.84716 1.07911,-0.9961 3.0879,-0.9961 0.92138,0 1.89257,0.15772 0.97119,0.14941 2.00879,0.45654 z m 4.75391,-0.39014 h 2.88037 v 4.72315 h 4.2417 v -4.72315 h 2.87207 V 272 h -2.87207 v -5.25439 h -4.2417 V 272 h -2.88037 z"
       id="text23"
       style="font-size:17px;letter-spacing:1.5"
       aria-label="BUILD THE MESH" />
  </g>
</svg>
